<svg xmlns="http://www.w3.org/2000/svg" xmlns:xlink="http://www.w3.org/1999/xlink" viewBox="0 0 40 40" style="fill:none;width:512px;height:512px">
  <defs>
    <radialGradient xlink:href="#a" id="b" cx="20.034" cy="19.978" r="15.421" fx="20.034" fy="19.978" gradientTransform="matrix(1 0 0 1.00009 0 -.002)" gradientUnits="userSpaceOnUse"/>
    <linearGradient id="a">
      <stop offset="0" style="stop-color:#d71e23;stop-opacity:1"/>
      <stop offset="1" style="stop-color:#c02222;stop-opacity:1"/>
    </linearGradient>
  </defs>
  <path style="fill:#dedede;stroke-linecap:round;stroke-linejoin:round" d="M3.28 2.018a1.262 1.262 0 0 0-1.262 1.261v33.442a1.262 1.262 0 0 0 1.261 1.261h33.4l.012-.005c.577-.164.475-.175.887-.377l.012-.006c.218-.231.34-.536.344-.854a.749.749 0 0 0 .007-.02 1.258 1.258 0 0 0-.104-.494 1.262 1.262 0 0 0-.161-.244 1.261 1.261 0 0 0-.112-.16l-.01-.013-14.17-13.604a4.222 4.222 0 0 1-1.648 1.916l11.807 11.336h-29V4.543h15.105c4.082.04 7.98 1.424 10.864 4.037 2.634 2.387 4.393 5.846 4.767 10.373l-11.734.215c.149.436.225.893.226 1.353-.003.397-.062.79-.175 1.17l13.107-.24a1.262 1.262 0 0 0 1.238-1.285C37.83 14.365 35.6 9.782 32.207 6.709c-3.392-3.073-7.897-4.646-12.533-4.691l-.002.002-.012-.002z"/>
  <path style="fill:url(#b);fill-opacity:1;stroke:none;stroke-width:.229163;stroke-miterlimit:4;stroke-dasharray:none" d="m20.842 4.525-16.299.018v30.916l29.045.035-11.246-10.84h-.01a6.804 6.804 0 0 1-1.643.885c-.647.134-2.039.111-2.42-.004-2.34-.71-3.863-2.654-3.875-5.012a5.176 5.176 0 0 1 1.52-3.668c.886-.885 2.374-1.516 3.596-1.496 1.528.025 2.594.48 3.7 1.526a5.502 5.502 0 0 1 1.222 2.252l.107.025 10.83-.195c-.074-1.142-.28-2.246-.56-3.328-.371-1.524-1.098-2.915-1.82-4.32a19.91 19.91 0 0 0-3.971-3.983c-1.34-.936-2.708-1.43-4.143-1.98-1.344-.41-2.643-.643-4.033-.83Z"/>
  <ellipse style="stroke:#dedede;stroke-width:1.88039;stroke-miterlimit:4;stroke-dasharray:none" ry="4.223" rx="4.218" cy="20.521" cx="19.553" fill="none"/>
</svg>
