<svg xmlns="http://www.w3.org/2000/svg" xmlns:xlink="http://www.w3.org/1999/xlink" viewBox="0 0 40 40" style="fill:none;width:1905px;height:945px">
  <defs>
    <radialGradient xlink:href="#a" id="b" cx="20.034" cy="19.978" r="15.421" fx="20.034" fy="19.978" gradientTransform="matrix(1 0 0 1.00009 0 -.002)" gradientUnits="userSpaceOnUse"/>
    <linearGradient id="a">
      <stop offset="0" style="stop-color:#d71e23;stop-opacity:1"/>
      <stop offset="1" style="stop-color:#c02222;stop-opacity:1"/>
    </linearGradient>
  </defs>
  <path fill="none" d="M3.28 3.28v0h16.381M3.28 36.72v0V3.28m33.4 33.44v0H3.28M19.661 3.28c8.718.085 16.806 5.918 17.019 16.91l-16.894.31L36.68 36.72" style="fill:#000;fill-opacity:0;stroke:#dedede;stroke-width:2.52456379;stroke-linecap:round;stroke-linejoin:round;stroke-miterlimit:4;stroke-dasharray:none;stroke-opacity:1"/>
  <path d="M4.61 20.007V4.495h4.76v4.523c0 5.171-.032 4.758.4 5.146.447.4-.601.365 10.306.353l9.561-.011.225-.108a1.37 1.37 0 0 0 .612-.56l.106-.181.012-4.581.012-4.581h1.816L33.867 5.8l1.448 1.304V35.52h-4.713l-.011-6.26-.012-6.26-.106-.182a1.37 1.37 0 0 0-.612-.56l-.225-.107-9.56-.01c-10.886-.013-9.866-.047-10.302.347-.443.4-.405-.245-.405 6.83v6.201H4.611Z" style="fill:none;fill-opacity:1;stroke-width:.04261111"/>
  <path d="M12.062 8.297V4.495h15.846v7.604H12.062zm14.086 2.748c.31-.139.469-.289.622-.584l.105-.202V6.328l-.136-.248c-.155-.278-.321-.422-.649-.56l-.224-.094h-4.354l-.225.094c-.327.138-.494.282-.648.56l-.137.248v1.965c.002 1.855.007 1.976.088 2.138.177.352.422.559.804.682.124.04.674.053 2.321.054l2.159.002.275-.124z" style="fill:none;fill-opacity:1;stroke-width:.04261111"/>
  <ellipse cx="19.554" cy="20.521" rx="4.218" ry="4.223" style="fill:none;fill-opacity:1;stroke:#dedede;stroke-width:1.88038802;stroke-miterlimit:4;stroke-dasharray:none;stroke-opacity:1"/>
  <path d="m4.543 4.543 16.298-.018c1.39.188 2.69.422 4.034.831 1.435.55 2.802 1.044 4.142 1.98a19.915 19.915 0 0 1 3.972 3.982c.723 1.406 1.449 2.796 1.82 4.32.28 1.082.487 2.187.561 3.329l-18.616.301 16.834 16.227-29.045-.036ZM20.689 25.54c1.871-.387 3.528-2.006 3.934-3.919.376-1.775-.203-3.41-1.412-4.737-1.107-1.045-2.173-1.499-3.701-1.524-1.222-.02-2.71.611-3.596 1.496a5.174 5.174 0 0 0-1.52 3.667c.012 2.358 1.535 4.302 3.876 5.013.381.115 1.772.138 2.419.004z" style="fill:url(#b);fill-opacity:1;stroke:none;stroke-width:.22916347;stroke-miterlimit:4;stroke-dasharray:none;stroke-opacity:1"/>
</svg>
